{
	"asset":{
		"generator":"Khronos glTF Blender I/O v4.0.44",
		"version":"2.0"
	},
	"scene":0,
	"scenes":[
		{
			"name":"Scene",
			"nodes":[
				0
			]
		}
	],
	"nodes":[
		{
			"mesh":0,
			"name":"Alvares.001"
		}
	],
	"materials":[
		{
			"doubleSided":true,
			"name":"Material",
			"pbrMetallicRoughness":{
				"baseColorFactor":[
					0.800000011920929,
					0.800000011920929,
					0.800000011920929,
					1
				],
				"metallicFactor":0,
				"roughnessFactor":0.9390243887901306
			}
		}
	],
	"meshes":[
		{
			"name":"Quad Sphere.001",
			"primitives":[
				{
					"attributes":{
						"COLOR_0":0,
						"POSITION":1,
						"NORMAL":2,
						"TEXCOORD_0":3
					},
					"indices":4,
					"material":0
				}
			]
		}
	],
	"accessors":[
		{
			"bufferView":0,
			"componentType":5126,
			"count":323880,
			"type":"VEC4"
		},
		{
			"bufferView":1,
			"componentType":5126,
			"count":323880,
			"max":[
				17.676130294799805,
				2.2223751544952393,
				9.532465934753418
			],
			"min":[
				-13.123369216918945,
				-25.240575790405273,
				-9.722057342529297
			],
			"type":"VEC3"
		},
		{
			"bufferView":2,
			"componentType":5126,
			"count":323880,
			"type":"VEC3"
		},
		{
			"bufferView":3,
			"componentType":5126,
			"count":323880,
			"type":"VEC2"
		},
		{
			"bufferView":4,
			"componentType":5125,
			"count":527904,
			"type":"SCALAR"
		}
	],
	"bufferViews":[
		{
			"buffer":0,
			"byteLength":5182080,
			"byteOffset":0,
			"target":34962
		},
		{
			"buffer":0,
			"byteLength":3886560,
			"byteOffset":5182080,
			"target":34962
		},
		{
			"buffer":0,
			"byteLength":3886560,
			"byteOffset":9068640,
			"target":34962
		},
		{
			"buffer":0,
			"byteLength":2591040,
			"byteOffset":12955200,
			"target":34962
		},
		{
			"buffer":0,
			"byteLength":2111616,
			"byteOffset":15546240,
			"target":34963
		}
	],
	"buffers":[
		{
			"byteLength":17657856,
			"uri":"alvare%CC%80s%20mode%CC%80le%20de%CC%81finitif.bin"
		}
	]
}
